<svg xmlns="http://www.w3.org/2000/svg" xmlns:xlink="http://www.w3.org/1999/xlink" width="68" height="68" viewBox="0 0 68 68">
  <defs>
    <clipPath id="clip-path">
      <rect id="Rectangle_9334" data-name="Rectangle 9334" width="68" height="68" transform="translate(192 180)" fill="#fff" stroke="#707070" stroke-width="1"/>
    </clipPath>
    <clipPath id="clip-path-2">
      <rect id="Rectangle_9330" data-name="Rectangle 9330" width="22.625" height="31.99" fill="#911d59"/>
    </clipPath>
  </defs>
  <g id="Mask_Group_7" data-name="Mask Group 7" transform="translate(-192 -180)" clip-path="url(#clip-path)">
    <g id="Group_17" data-name="Group 17" transform="translate(192 180)">
      <g id="noun_pass_2253468" transform="translate(0 0)">
        <path id="Path_3" data-name="Path 3" d="M144.617,11.946l-17.78.078a1.087,1.087,0,0,0-1.1.917,10.161,10.161,0,0,1-3.35,6.132,9.771,9.771,0,0,1-6.455,2.428c-.039,0-.079,0-.118,0a10.114,10.114,0,0,1-9.947-8.543,1.089,1.089,0,0,0-1.1-.93L87.3,12.03a5.231,5.231,0,0,0-5.278,5.219V74.6A5.231,5.231,0,0,0,87.3,79.821l57.318-.084a5.231,5.231,0,0,0,5.278-5.219V17.165a5.231,5.231,0,0,0-5.278-5.219Z" transform="translate(-82.02 -11.946)" fill="#fff"/>
      </g>
      <g id="Group_14" data-name="Group 14" transform="translate(22.625 21.548)">
        <g id="Group_13" data-name="Group 13" clip-path="url(#clip-path-2)">
          <path id="Path_4" data-name="Path 4" d="M22.183,12.624a12.252,12.252,0,0,1-3.038,8.437,8.907,8.907,0,0,1-4.706,2.784c-.97.22-1,.235-.866,1.205a5.069,5.069,0,0,0,.363,1.394,2.226,2.226,0,0,0,2.3,1.335,2.49,2.49,0,0,0,1.984-2.042c.1-.445.048-1.083.321-1.284.323-.237.924-.107,1.4-.115.716-.011,1.433.01,2.149-.009.367-.01.547.1.531.5-.16,4-2.943,7.058-6.857,7.161-4,.106-6.733-2.825-6.769-6.8,0-.561-.037-.874-.75-1A9.126,9.126,0,0,1,1.768,20,12.169,12.169,0,0,1,.106,14.563,17.023,17.023,0,0,1,1.3,5.849C3,2.062,6.093.291,10.132.036a12.453,12.453,0,0,1,6.054.953A9.565,9.565,0,0,1,21.3,6.936a18.193,18.193,0,0,1,.88,5.688m-4.826-.086a11.7,11.7,0,0,0-.634-4.359,5.467,5.467,0,0,0-5.1-3.96,5.654,5.654,0,0,0-6.052,3.7A13.821,13.821,0,0,0,5.183,16a5.343,5.343,0,0,0,3.811,4.24c2.783.834,6.172.084,7.618-3.328a9.777,9.777,0,0,0,.745-4.37" transform="translate(0 0)" fill="#911d59"/>
        </g>
      </g>
      <g id="Group_15" data-name="Group 15" transform="translate(52.212 23.495)">
        <rect id="Rectangle_9331" data-name="Rectangle 9331" width="27" height="4" rx="2" transform="translate(4.788 -0.496)" fill="#911d59"/>
        <rect id="Rectangle_9333" data-name="Rectangle 9333" width="27" height="4" rx="2" transform="translate(4.788 18.504)" fill="#911d59"/>
        <rect id="Rectangle_9332" data-name="Rectangle 9332" width="26" height="4" rx="2" transform="translate(-0.212 9.504)" fill="#911d59"/>
      </g>
    </g>
  </g>
</svg>
